<?xml version="1.0" encoding="UTF-8"?>
<svg id="Capa_1" data-name="Capa 1" xmlns="http://www.w3.org/2000/svg" viewBox="0 0 25.1 18.5">
  <defs>
    <style>
      .cls-1 {
        fill: #a078b9;
        stroke-width: 0px;
      }
    </style>
  </defs>
  <path class="cls-1" d="m21.06,11.24c-.41.09-.81.2-1.21.27-.84.15-1.68.07-2.49-.18-.94-.29-1.75-.78-2.45-1.48-.88-.89-1.41-1.95-1.62-3.17-.21-1.24,0-2.43.57-3.54.71-1.37,1.8-2.32,3.27-2.82,1.5-.51,3-.43,4.42.27,1.16.57,2.05,1.45,2.63,2.61.39.78.58,1.63.76,2.49.2.99.17,2,.14,2.99-.03.89-.22,1.76-.49,2.61-.32,1-.74,1.95-1.3,2.84-.46.74-1,1.41-1.6,2.04-.84.87-1.8,1.58-2.86,2.17-.49.27-1.23.15-1.55-.36-.31-.49-.19-1.14.29-1.51.33-.26.68-.49.99-.76.82-.73,1.46-1.59,1.92-2.58.27-.59.5-1.2.6-1.85,0-.01,0-.02-.01-.04Z"/>
  <path class="cls-1" d="m7.82,11.23c-.32.08-.6.15-.89.22-.75.18-1.51.18-2.26.03-1.32-.28-2.44-.91-3.32-1.95-.6-.71-1.04-1.51-1.22-2.42-.24-1.21-.19-2.39.31-3.55.47-1.11,1.22-1.97,2.21-2.62C3.62.3,4.68,0,5.85.03c1.81.03,3.25.77,4.4,2.12.52.61.88,1.32,1.08,2.09.18.72.37,1.45.47,2.18.1.74.13,1.49.03,2.25-.07.57-.11,1.15-.24,1.71-.26,1.18-.69,2.31-1.3,3.36-.65,1.13-1.45,2.13-2.41,3-.74.67-1.56,1.22-2.44,1.69-.31.17-.97.02-1.25-.27-.42-.44-.43-1.12.01-1.53.33-.31.71-.57,1.05-.87.55-.48,1.04-1.02,1.43-1.63.53-.83.93-1.73,1.12-2.7.01-.06,0-.12.01-.19Z"/>
</svg>