<?xml version="1.0" encoding="UTF-8"?>
<svg id="Capa_1" data-name="Capa 1" xmlns="http://www.w3.org/2000/svg" viewBox="0 0 304.41 145.26">
  <defs>
    <style>
      .cls-1 {
        fill: #a078b9;
        stroke-width: 0px;
      }
    </style>
  </defs>
  <path class="cls-1" d="M58.99,72.83c18.41,0,36.82-.06,55.23.06,2.89.02,7.4-.15,8.35,1.44,2.42,4.05-.66,7.18-4,9.94-11.86,9.82-24.39,18.49-38.7,24.41-.58.24-1.07.7-2.56,1.71,18.76-2.07,32.41-11.57,44.83-23.46,3.13,6.05,2.65,11.35-1.73,15.35-23.36,21.32-49.08,38.17-81.32,42.69-6.17.86-10.77,0-15.3-5.32C5.37,118.05.55,92.39.03,65.22-.36,44.98,3.33,25.83,14.88,8.73,18.59,3.24,22.79-.02,30.34,0c24.74.08,46.57,8.54,67.05,21.36,6.89,4.32,13.22,9.54,19.87,14.25,5.96,4.22,7.3,9.81,5.28,17.2-14.08-10.52-28.19-20.3-46.48-20.66,3.29,1.37,6.82,2.36,9.84,4.19,11.21,6.78,22.28,13.79,33.32,20.85,1.32.84,2.38,2.37,3.09,3.81,2.46,4.92.58,7.05-4.85,7.21-18.93.57-37.85,1.51-56.78,2.34-.59.03-1.15.46-1.73.7,0,.52,0,1.05.01,1.57Z"/>
  <path class="cls-1" d="M245.4,70.58c-7.37-.63-14.73-1.56-22.12-1.81-12.46-.41-24.94-.57-37.4-.42-4.14.05-5.57-2.01-4.37-5.01,1.21-3.02,3.55-5.94,6.13-7.98,12.42-9.83,25.78-18.16,40.8-23.6-18.19.59-32.33,10.41-46.62,21.06-1.62-6.38-1.29-11.71,3.67-15.83,20.23-16.83,42.45-29.96,68.62-34.98,7.77-1.49,15.88-1.62,23.82-1.57,2.7.02,6.13,1.85,7.95,3.96,13,15.08,17.68,33.3,18.37,52.68.83,23.23-1.49,46.04-13.02,66.8-3.76,6.77-8.75,12.95-13.83,18.84-1.58,1.83-5.37,2.65-8.05,2.47-16.19-1.08-31.65-5.59-45.35-14.06-13.39-8.28-25.92-17.99-38.51-27.49-5.75-4.34-6.4-8.88-3.65-16.95,12.9,11.86,26.58,21.86,44.67,23.12-4.7-2.31-9.71-4.15-14.02-7.03-9.68-6.44-19.07-13.33-28.42-20.24-1.42-1.05-2.54-3.14-2.85-4.91-.69-3.96,1.11-5.34,5.39-5.28,19.13.24,38.26.05,57.39,0,.46,0,.92-.21,1.38-.32,0-.48,0-.96,0-1.45Z"/>
  <path class="cls-1" d="M152.11,100.49c-4.66,0-9.34-.32-13.96.09-4.31.38-6.51-1.81-6.9-5.4-1.14-10.69-2.23-21.41-2.52-32.14-.13-5.02,1.54-10.12,2.57-15.14.78-3.79,3.14-5.42,7.17-5.31,9.28.25,18.58.5,27.84.09,4.46-.2,5.96,2.02,6.96,5.41,3.35,11.35,3.53,22.97,2.33,34.6-.49,4.74-1.82,9.41-2.96,14.06-.68,2.76-2.58,3.92-5.56,3.8-4.98-.19-9.98-.05-14.97-.06Z"/>
</svg>