<?xml version="1.0" encoding="UTF-8"?>
<svg id="Capa_1" data-name="Capa 1" xmlns="http://www.w3.org/2000/svg" viewBox="0 0 39.46 43.4">
  <defs>
    <style>
      .cls-1 {
        fill: #a078b9;
        stroke-width: 0px;
      }
    </style>
  </defs>
  <path class="cls-1" d="M12.46,30.97v-.32c0-6.42,0-12.85,0-19.27,0-1.38.49-2.56,1.35-3.61.89-1.1,2.08-1.69,3.42-2.07,1.53-.43,3.05-.92,4.57-1.39,2.61-.8,5.22-1.6,7.83-2.39,1.87-.57,3.74-1.15,5.62-1.72.82-.25,1.64-.29,2.44.03,1.1.45,1.77,1.5,1.77,2.78,0,1.43,0,2.86,0,4.29,0,7.68-.01,15.37.01,23.05,0,1.65-.49,3.09-1.52,4.36-1.11,1.38-2.54,2.32-4.19,2.93-1.39.52-2.83.72-4.3.63-1.63-.11-3.14-.57-4.41-1.65-1.69-1.44-2.18-3.77-1.24-5.95.7-1.64,1.9-2.85,3.4-3.77,1.91-1.17,4.01-1.65,6.24-1.52.89.05,1.76.23,2.57.62.02,0,.05,0,.08.01,0-.07,0-.13,0-.19,0-4.42,0-8.84,0-13.26,0-1-.48-1.44-1.48-1.24-.71.14-1.39.39-2.09.61-2.28.71-4.56,1.43-6.85,2.15-2.66.83-5.32,1.65-7.97,2.5-.71.23-1.29.66-1.68,1.31-.2.32-.27.67-.27,1.04,0,5.51-.01,11.02,0,16.53,0,2.07-.78,3.78-2.23,5.2-1.43,1.4-3.17,2.21-5.13,2.56-1.49.27-2.97.25-4.43-.2-1.43-.44-2.63-1.21-3.39-2.55-.59-1.03-.72-2.15-.5-3.3.35-1.86,1.41-3.28,2.85-4.44,1.62-1.31,3.49-2.05,5.56-2.26,1.05-.11,2.1-.1,3.12.2.27.08.53.19.83.3Z"/>
</svg>