<?xml version="1.0" encoding="UTF-8"?>
<svg id="Capa_1" data-name="Capa 1" xmlns="http://www.w3.org/2000/svg" viewBox="0 0 48.26 55.88">
  <defs>
    <style>
      .cls-1 {
        fill:#ffffffff;
        stroke-width: 0px;
      }
    </style>
  </defs>
  <path class="cls-1" d="M26.68,29.21c.21,0,.38,0,.56,0,5.09,0,10.19,0,15.28,0,1.91,0,2.85.95,2.85,2.86,0,7.03,0,14.06,0,21.09,0,1.7-1,2.71-2.68,2.71-5.16,0-10.33,0-15.49,0-.16,0-.31,0-.52,0v-26.66Z"/>
  <path class="cls-1" d="M21.6,29.21v26.67c-.22,0-.41,0-.59,0-5.11,0-10.22,0-15.33,0-1.8,0-2.78-.98-2.78-2.77,0-6.99,0-13.99,0-20.98,0-1.97.94-2.91,2.92-2.91,5.08,0,10.15,0,15.23,0,.17,0,.35,0,.56,0Z"/>
  <path class="cls-1" d="M24.09,7.5c.72-1.14,1.4-2.34,2.2-3.45,1.16-1.59,2.62-2.86,4.49-3.58,2.33-.89,4.61-.48,6.07,1.08,1.65,1.76,2.08,4.38,1.06,6.6-.94,2.03-2.57,3.36-4.48,4.4-.15.08-.3.16-.49.27,1.12,0,2.19.07,3.24-.02,1.65-.14,3.23-.56,4.62-1.52.43-.3.82-.67,1.19-1.04.63-.64,1.46-.75,2.07-.21.64.55.68,1.43.07,2.11-1.54,1.75-3.53,2.74-5.77,3.19-1.34.26-2.72.43-4.09.44-6.59.04-13.18.01-19.77.02-2.38,0-4.72-.24-6.93-1.18-1.35-.58-2.54-1.38-3.49-2.5-.52-.6-.47-1.44.07-1.96.57-.55,1.45-.58,2,.01,1.64,1.8,3.79,2.44,6.1,2.66.99.09,1.99.02,3.07.02-.18-.11-.32-.19-.46-.26-1.87-1.01-3.49-2.29-4.43-4.24-1.11-2.31-.81-4.5.75-6.49C12.51.12,14.73-.42,17.04.33c2.38.77,4.06,2.42,5.43,4.42.61.9,1.11,1.87,1.63,2.75ZM25.79,11.49c.96-.09,1.81-.11,2.63-.25,2.16-.36,4.14-1.15,5.75-2.7.78-.75,1.36-1.62,1.43-2.75.13-2.14-1.51-3.4-3.52-2.72-.33.11-.66.25-.96.43-2.97,1.78-4.36,4.62-5.32,7.98ZM22.38,11.45c-.02-.17-.02-.24-.04-.3-.6-2.28-1.59-4.36-3.24-6.09-.96-1.01-2.06-1.82-3.46-2.12-1.22-.26-2.09.18-2.65,1.3-.65,1.31-.42,2.7.78,3.97,2.32,2.45,5.3,3.17,8.61,3.24Z"/>
  <path class="cls-1" d="M26.66,27.33v-10.29c.19,0,.37,0,.56,0,6.12,0,12.23,0,18.35,0,1.69,0,2.69,1,2.69,2.69,0,1.64,0,3.28,0,4.92,0,1.7-1,2.68-2.71,2.68-6.06,0-12.12,0-18.19,0-.21,0-.42,0-.7,0Z"/>
  <path class="cls-1" d="M21.61,17.06v10.27c-.23,0-.43,0-.64,0-6.12,0-12.23,0-18.35,0-1.59,0-2.61-1.01-2.62-2.61,0-1.73-.01-3.45,0-5.18.01-1.45,1.06-2.5,2.51-2.5,6.22,0,12.44,0,18.66,0,.12,0,.24.01.42.02Z"/>
</svg>