<?xml version="1.0" encoding="UTF-8"?>
<svg id="Capa_1" data-name="Capa 1" xmlns="http://www.w3.org/2000/svg" viewBox="0 0 39.16 59.03">
  <defs>
    <style>
      .cls-1 {
        fill: #a078b9;
        stroke-width: 0px;
      }
    </style>
  </defs>
  <path class="cls-1" d="M19.54,59.03c-2.32-3.65-4.59-7.13-6.76-10.68-3.63-5.93-7.07-11.97-9.85-18.36-1.17-2.69-2.27-5.42-2.72-8.34-.65-4.22.22-8.21,2.4-11.83C6.74,2.96,12.94-.38,20.92.03c8.86.46,16.13,7.03,17.91,15.76.81,3.95.01,7.66-1.39,11.31-2.6,6.74-6.08,13.04-9.8,19.2-2.41,4-4.98,7.9-7.48,11.85-.16.25-.34.48-.62.88ZM19.65,9.4c-5.06-.06-9.31,4.09-9.37,9.13-.06,5.15,4.04,9.43,9.1,9.5,5.16.08,9.48-4.07,9.54-9.15.06-5.22-4.05-9.42-9.27-9.48Z"/>
</svg>