<?xml version="1.0" encoding="utf-8"?>
<!-- Generator: Adobe Illustrator 28.0.0, SVG Export Plug-In . SVG Version: 6.00 Build 0)  -->
<svg version="1.1" id="Capa_1" xmlns="http://www.w3.org/2000/svg" xmlns:xlink="http://www.w3.org/1999/xlink" x="0px" y="0px"
	 viewBox="0 0 1344.7 207.8" style="enable-background:new 0 0 1344.7 207.8;" xml:space="preserve">
<style type="text/css">
	.st0{fill:#DCB5F5;}
	.st1{fill:#E6E6E6;}
	.st2{fill:none;stroke:#A078B9;stroke-width:3;stroke-miterlimit:10;}
</style>
<path class="st0" d="M1303.4,164c0,0-203.1-140.6-722.6-17.6L861.1,164l190.3,25.7L1303.4,164L1303.4,164z"/>
<path class="st1" d="M1.2,130.6v77.1h1343v-77.1c0,0-177.1,38.6-336.5,38.6S540.5,85.1,343.4,85.1S1.2,130.6,1.2,130.6z"/>
<path class="st2" d="M1.2,0.9C83.6,115,231.9,167.3,373.4,169.3c141.5,2,279.5-39.1,415.3-78.7c75.6-22,151.8-43.7,230-53
	c112-13.3,220.4,10.3,325.5,47.9"/>
</svg>
